<?xml version="1.0" encoding="UTF-8" standalone="no"?>
<!DOCTYPE svg PUBLIC "-//W3C//DTD SVG 1.1//EN" "http://www.w3.org/Graphics/SVG/1.1/DTD/svg11.dtd">
<svg width="100%" height="100%" viewBox="0 0 32 32" version="1.1" xmlns="http://www.w3.org/2000/svg" xmlns:xlink="http://www.w3.org/1999/xlink" xml:space="preserve" xmlns:serif="http://www.serif.com/" style="fill-rule:evenodd;clip-rule:evenodd;stroke-linejoin:round;stroke-miterlimit:2;">
    <g transform="matrix(3.58411,0,0,3.47059,-8.59813,-23.8914)">
        <rect x="2.399" y="6.884" width="8.928" height="9.22" style="fill:white;"/>
    </g>
    <g transform="matrix(0.521204,0,0,0.521204,-89.0937,0.0855685)">
        <path d="M182.977,60.188C181.775,59.67 180.853,59.152 179.932,58.634C180.739,57.914 181.448,56.76 182.371,56.548C186.784,55.537 187.629,54.679 187.634,50.188C187.648,36.966 187.65,23.744 187.633,10.521C187.627,6.284 186.647,4.996 182.43,4.532C180.096,4.275 179.471,3.419 180.329,0.897C185.655,0.897 191.096,0.817 196.534,0.922C200.938,1.007 205.395,0.94 209.729,1.597C221.715,3.416 225.065,14.136 222.565,23.912C220.751,31.01 215.673,34.862 208.756,36.242C205.583,36.875 202.287,37.058 199.042,37.096C196.814,37.121 195.76,37.591 195.9,40.087C196.089,43.461 195.914,46.854 195.957,50.239C196.015,54.783 197.066,55.922 201.633,56.539C202.154,56.609 202.767,56.495 203.183,56.736C204.025,57.223 204.76,57.895 205.539,58.491C204.747,59.056 203.965,60.096 203.162,60.112C196.53,60.245 189.894,60.188 182.977,60.188ZM212.476,28.217C215.076,23.263 214.966,17.989 213.814,12.784C212.718,7.837 209.512,5.379 204.374,4.93C202.286,4.748 200.171,4.897 198.073,4.804C196.402,4.73 195.901,5.508 195.91,7.089C195.956,15.112 195.9,23.136 195.991,31.158C195.998,31.868 196.787,33.172 197.239,33.183C202.711,33.325 208.287,33.598 212.476,28.217Z" style="fill-rule:nonzero;"/>
    </g>
</svg>
