<?xml version="1.0" encoding="UTF-8" standalone="no"?><!DOCTYPE svg PUBLIC "-//W3C//DTD SVG 1.1//EN" "http://www.w3.org/Graphics/SVG/1.1/DTD/svg11.dtd"><svg width="100%" height="100%" viewBox="0 0 42 42" version="1.1" xmlns="http://www.w3.org/2000/svg" xmlns:xlink="http://www.w3.org/1999/xlink" xml:space="preserve" xmlns:serif="http://www.serif.com/" style="fill-rule:evenodd;clip-rule:evenodd;stroke-linejoin:round;stroke-miterlimit:2;"><g><path d="M17.535,41.79c-9.975,-1.785 -17.535,-10.395 -17.535,-20.79c0,-11.55 9.45,-21 21,-21c11.55,0 21,9.45 21,21c0,10.395 -7.56,19.005 -17.535,20.79l-1.155,-0.945l-4.62,0l-1.155,0.945Z" style="fill-rule:nonzero;"/></g><g><path d="M29.19,26.88l0.945,-5.88l-5.565,0l0,-4.095c0,-1.68 0.63,-2.94 3.15,-2.94l2.73,0l0,-5.355c-1.47,-0.21 -3.15,-0.42 -4.62,-0.42c-4.83,-0 -8.19,2.94 -8.19,8.19l0,4.62l-5.25,-0l0,5.88l5.25,0l0,14.805c1.155,0.21 2.31,0.315 3.465,0.315c1.155,0 2.31,-0.105 3.465,-0.315l0,-14.805l4.62,0Z" style="fill:#fff;fill-rule:nonzero;"/></g></svg>