<svg width="46" height="46" viewBox="0 0 46 46" fill="none" xmlns="http://www.w3.org/2000/svg">
<path d="M0 5C0 2.23858 2.23858 0 5 0H37C39.7614 0 42 2.23858 42 5V39.2242C42 41.9857 39.7614 44.2242 37 44.2242H5C2.23858 44.2242 0 41.9856 0 39.2242V5Z" fill="#040000"/>
<path d="M24.0443 19.7132L35.9571 5H33.1341L22.7903 17.7753L14.5287 5H5L17.4931 24.3185L5 39.7476H7.82309L18.7464 26.2565L27.4713 39.7476H37L24.0437 19.7132H24.0443ZM20.1777 24.4887L18.9119 22.565L8.84029 7.25804H13.1764L21.3043 19.6113L22.5701 21.535L33.1355 37.5923H28.7994L20.1777 24.4895V24.4887Z" fill="white"/>
</svg>
